<?xml version="1.0" encoding="UTF-8" standalone="no"?><!DOCTYPE svg PUBLIC "-//W3C//DTD SVG 1.1//EN" "http://www.w3.org/Graphics/SVG/1.1/DTD/svg11.dtd"><svg width="100%" height="100%" viewBox="0 0 1281 1281" version="1.1" xmlns="http://www.w3.org/2000/svg" xmlns:xlink="http://www.w3.org/1999/xlink" xml:space="preserve" xmlns:serif="http://www.serif.com/" style="fill-rule:evenodd;clip-rule:evenodd;stroke-linejoin:round;stroke-miterlimit:2;"><rect id="v2-aligned" x="0.461" y="0.223" width="1280" height="1280" style="fill:none;"/><g id="baked"><path d="M370.767,883.403c68.103,68.67 163.647,109.698 267.81,105.665c22.36,-0.866 44.163,-3.771 65.237,-8.529c80.533,-18.25 163.981,15.036 209.843,83.703c0.005,-0.003 0.005,-0.003 0.005,-0.003c-26.294,17.011 -54.097,31.654 -83.039,43.58c-129.673,53.429 -281.025,51.162 -408.828,-6.999c-5.858,-2.665 -11.664,-5.445 -17.413,-8.335c-37.56,-18.747 -63.783,-54.447 -70.436,-95.895c-6.654,-41.448 7.078,-83.562 36.883,-113.123c-0.063,-0.064 -0.062,-0.064 -0.062,-0.064Zm-75.983,-389.818c-19.566,46.615 -29.508,98.126 -27.425,151.937c0.371,9.584 1.117,19.067 2.223,28.433c8.88,74.62 -30.326,146.714 -97.79,179.816c0.008,0.015 0.008,0.015 0.008,0.015c-32.551,-69.824 -49.054,-147.097 -47.299,-224.174c0.267,-11.766 0.964,-23.518 2.08,-35.228c3.691,-38.501 25.458,-72.957 58.641,-92.827c33.184,-19.871 73.835,-22.79 109.517,-7.865c0.045,-0.107 0.045,-0.107 0.045,-0.107Zm215.679,-200.874c-23.654,7.972 -46.173,18.344 -67.28,30.814c-60.2,35.584 -136.458,28.417 -188.975,-17.761c-0.02,0.022 -0.02,0.022 -0.02,0.022c24.234,-26.413 51.388,-50.167 80.763,-70.773c29.789,-20.837 67.655,-26.419 102.189,-15.064c34.534,11.354 61.699,38.317 73.311,72.765c0.012,-0.003 0.012,-0.003 0.012,-0.003Z"/><path d="M624.695,87.623l0.572,0.012c112.028,2.118 220.939,39.116 309.612,104.031c101.043,73.97 175.208,184.153 204.648,306.109c9.696,40.164 14.526,81.428 14.592,122.698c-0.078,55.708 -8.69,109.42 -24.592,159.886c-13.896,44.139 -48.48,78.706 -92.627,92.58c-44.147,13.873 -92.288,5.304 -128.935,-22.953c-0.001,0.001 -0.001,0.001 -0.001,0.001c49.42,-64.03 77.53,-145.073 74.159,-232.137c-5.498,-142.028 -93.281,-261.602 -215.637,-314.568c-86.06,-37.156 -141.791,-121.921 -141.791,-215.659l-0.002,0l0.002,0Z"/></g></svg>